<?xml version="1.0" standalone="no"?>
<!DOCTYPE svg PUBLIC "-//W3C//DTD SVG 20010904//EN"
 "http://www.w3.org/TR/2001/REC-SVG-20010904/DTD/svg10.dtd">
<svg version="1.0" xmlns="http://www.w3.org/2000/svg"
 width="641.000000pt" height="641.000000pt" viewBox="0 0 641.000000 641.000000"
 preserveAspectRatio="xMidYMid meet">
<metadata>
Created by potrace 1.14, written by Peter Selinger 2001-2017
</metadata>
<g transform="translate(0.000000,641.000000) scale(0.100000,-0.100000)"
fill="#000000" stroke="none">
<path d="M3053 6338 c-11 -18 -22 -40 -26 -48 -4 -8 -16 -28 -27 -45 -11 -16
-23 -37 -27 -45 -3 -8 -28 -50 -55 -93 -26 -43 -48 -80 -48 -82 0 -3 -60 -104
-177 -300 -13 -22 -26 -48 -30 -57 -3 -10 -9 -18 -14 -18 -5 0 -9 -4 -9 -9 0
-5 -38 -74 -85 -152 -47 -79 -85 -144 -85 -146 0 -2 -17 -32 -38 -66 -21 -34
-58 -96 -82 -137 -24 -41 -54 -92 -67 -112 -12 -21 -23 -42 -23 -48 0 -5 -4
-10 -10 -10 -5 0 -10 -4 -10 -9 0 -5 -28 -56 -61 -113 -34 -56 -70 -116 -79
-133 -10 -16 -46 -77 -80 -135 -34 -58 -70 -119 -80 -136 -10 -16 -39 -67 -66
-112 -57 -97 -57 -97 -109 -185 -22 -38 -44 -76 -50 -85 -15 -26 -189 -320
-200 -340 -6 -9 -35 -60 -66 -112 -63 -107 -108 -190 -244 -445 -14 -27 -30
-54 -36 -60 -5 -5 -9 -17 -9 -27 0 -10 -4 -18 -8 -18 -5 0 -14 -12 -21 -27 -7
-16 -33 -65 -57 -110 -25 -46 -44 -84 -42 -87 2 -2 -4 -12 -12 -22 -8 -11 -26
-41 -40 -69 -14 -27 -27 -52 -30 -55 -3 -3 -14 -23 -26 -45 -50 -97 -118 -221
-127 -232 -5 -7 -6 -13 -1 -13 5 0 4 -4 -2 -8 -6 -4 -34 -51 -62 -106 l-52
-98 97 -162 c53 -88 113 -186 132 -216 20 -30 36 -57 36 -60 0 -3 13 -25 29
-48 28 -45 205 -334 236 -387 9 -16 31 -52 48 -80 18 -27 39 -65 49 -82 9 -18
20 -33 25 -33 4 0 8 -5 8 -11 0 -9 62 -115 130 -223 8 -13 27 -44 41 -68 14
-23 89 -146 166 -273 77 -126 166 -273 197 -325 32 -52 59 -96 61 -98 4 -5 82
-17 175 -27 25 -3 79 -10 120 -15 41 -6 87 -12 102 -14 15 -2 44 0 65 5 21 5
58 11 83 14 25 4 95 15 155 25 61 10 130 22 155 25 25 3 52 8 60 10 8 2 38 7
65 10 28 4 59 9 70 10 11 2 58 10 105 18 47 9 105 19 130 22 25 3 83 13 130
21 47 8 99 17 115 19 55 8 99 15 155 25 100 17 108 18 166 25 33 4 66 14 76
22 9 8 49 65 90 126 40 62 75 114 78 117 3 3 24 34 47 70 24 36 46 70 50 75
33 42 193 287 193 294 0 5 4 11 8 13 5 1 26 30 47 63 22 33 43 65 47 70 10 12
71 102 115 170 43 66 53 80 86 126 15 21 27 41 27 45 0 5 49 73 60 84 3 3 21
31 40 62 19 32 38 58 42 58 4 0 8 6 8 13 0 7 8 22 18 33 11 11 21 24 23 29 7
17 123 189 136 203 7 7 13 17 13 22 0 5 6 15 13 22 6 7 138 202 292 433 154
231 282 422 285 425 11 11 125 186 132 203 8 19 -1 44 -24 69 -7 7 -31 40 -53
73 -22 33 -42 62 -45 65 -3 3 -28 39 -55 80 -28 41 -58 83 -67 94 -10 11 -18
24 -18 29 0 5 -10 18 -22 28 -11 11 -18 19 -14 19 4 0 -5 17 -21 38 -16 20
-43 57 -59 82 -17 25 -46 68 -65 95 -20 28 -66 95 -104 150 -38 55 -73 103
-79 107 -7 5 -7 8 -1 8 7 0 7 3 0 8 -17 12 -65 80 -65 91 0 6 -3 11 -7 11 -5
0 -21 21 -38 48 -16 26 -33 52 -38 57 -12 14 -171 244 -258 371 -41 60 -78
113 -82 119 -29 36 -207 298 -207 305 0 5 -4 10 -8 12 -4 2 -37 46 -72 98 -36
52 -70 100 -76 107 -6 6 -26 35 -45 65 -18 29 -38 58 -44 64 -5 7 -53 74 -105
150 -52 77 -98 141 -102 142 -4 2 -8 9 -8 16 0 7 -8 21 -18 32 -16 17 -53 70
-235 336 -50 72 -67 90 -106 107 -25 11 -84 37 -131 59 -47 22 -119 54 -160
72 -41 18 -103 45 -137 61 -34 16 -64 29 -67 29 -2 0 -13 -15 -23 -32z"/>
</g>
</svg>
