<svg width="514" height="514" viewBox="0 0 514 514" fill="none" xmlns="http://www.w3.org/2000/svg">
    <path opacity="0.5" d="M514 257C514 316.458 493.384 374.077 455.664 420.039C417.944 466.001 365.454 497.462 307.138 509.062C248.822 520.662 188.289 511.682 135.851 483.654C83.4135 455.625 42.3167 410.282 19.563 355.35C-3.19075 300.417 -6.1935 239.295 11.0663 182.397C28.3262 125.499 64.7807 76.3456 114.218 43.3123C163.656 10.2791 223.018 -4.5904 282.19 1.23752C341.362 7.06545 396.683 33.2302 438.726 75.2735L436.909 77.0908C395.286 35.4679 340.519 9.56479 281.938 3.79514C223.358 -1.97451 164.59 12.7463 115.646 45.4492C66.7028 78.1521 30.6129 126.814 13.5257 183.143C-3.56158 239.472 -0.588846 299.983 21.9373 354.366C44.4635 408.749 85.1494 453.639 137.063 481.387C188.976 509.135 248.904 518.025 306.637 506.541C364.37 495.057 416.334 463.911 453.677 418.409C491.02 372.906 511.43 315.864 511.43 257H514Z" fill="#C4C4C4"/>
</svg>
