<svg width="159" height="64" viewBox="0 0 159 64" fill="none" xmlns="http://www.w3.org/2000/svg">
<path d="M39.1439 0.699707H25.1918C24.5114 0.699707 23.9598 1.24758 23.9598 1.92331V37.5272C23.9598 37.5272 23.653 41.6128 19.9506 41.6128C16.2483 41.6128 15.9837 37.5272 15.9837 37.5272V29.3593C15.9837 28.6836 15.4321 28.1357 14.7517 28.1357H2.09135C1.41099 28.1357 0.859375 28.6836 0.859375 29.3593V39.6783C0.859375 39.6783 1.65246 53.9248 20.3322 53.9248C39.7272 53.9248 40.3139 36.3819 40.3139 36.3819L40.3758 1.92545C40.3771 1.2488 39.8251 0.699707 39.1439 0.699707Z" fill="#202738"/>
<path fill-rule="evenodd" clip-rule="evenodd" d="M80.923 34.8013C80.9319 35.3174 80.5186 35.7429 79.999 35.7429L57.234 35.7426C56.6738 35.7426 56.2336 36.2351 56.318 36.7851C56.9291 40.7676 59.1029 44.4531 62.8398 44.4531C64.7269 44.4531 66.7738 43.6351 67.9426 42.1512C68.1166 41.9304 68.3831 41.8016 68.6655 41.8016H78.8859C79.5426 41.8016 79.983 42.4605 79.7425 43.0671C76.8587 50.3396 70.1799 53.7348 62.8401 53.7348C52.1324 53.7348 44.01 46.5372 44.01 33.8466C44.01 22.8607 51.0252 12.7629 61.7322 12.7629C74.7388 12.7629 80.6744 20.6206 80.923 34.8013ZM68.4879 27.1478C68.0585 24.2158 65.8207 21.9294 62.8399 21.9294C57.2769 21.9294 56.5036 26.5632 56.3961 27.8514C56.3813 28.0297 56.5233 28.1802 56.7035 28.1802H67.5704C68.1263 28.1802 68.568 27.6945 68.4879 27.1478Z" fill="#202738"/>
<path fill-rule="evenodd" clip-rule="evenodd" d="M120.008 34.8013C120.017 35.3174 119.604 35.7429 119.084 35.7429L96.3195 35.7426C95.7592 35.7426 95.3191 36.2351 95.4035 36.7851C96.0145 40.7676 98.1884 44.4531 101.925 44.4531C103.812 44.4531 105.859 43.6351 107.028 42.1512C107.202 41.9304 107.469 41.8016 107.751 41.8016H117.971C118.628 41.8016 119.068 42.4605 118.828 43.0671C115.944 50.3396 109.265 53.7348 101.926 53.7348C91.2179 53.7348 83.0955 46.5372 83.0955 33.8466C83.0955 22.8607 90.1106 12.7629 100.818 12.7629C113.824 12.7629 119.76 20.6206 120.008 34.8013ZM107.572 27.1478C107.143 24.2158 104.905 21.9294 101.924 21.9294C96.3614 21.9294 95.588 26.5632 95.4805 27.8514C95.4657 28.0297 95.6077 28.1802 95.7879 28.1802H106.655C107.211 28.1802 107.652 27.6945 107.572 27.1478Z" fill="#202738"/>
<path fill-rule="evenodd" clip-rule="evenodd" d="M133.734 17.8782C133.734 17.8782 136.145 12.7644 144.042 12.7644C146.733 12.7644 158.552 13.3756 158.552 32.841C158.552 52.3068 143.852 52.5399 143.852 52.5399C143.852 52.5399 137.046 52.9336 134.114 47.4261V62.798C134.114 63.3049 133.701 63.7157 133.19 63.7157H121.868C121.357 63.7157 120.944 63.3049 120.944 62.798V14.6273C120.944 14.1205 121.357 13.7096 121.868 13.7096H132.81C133.32 13.7096 133.734 14.1205 133.734 14.6273V17.8782ZM133.527 32.8064C133.527 37.5862 135.072 41.4616 139.555 41.4616C144.039 41.4616 145.584 37.5862 145.584 32.8064C145.584 28.0237 143.798 24.1482 139.555 24.1482C135.313 24.1482 133.527 28.0233 133.527 32.8064Z" fill="#202738"/>
</svg>
