<svg display="none" xmlns="http://www.w3.org/2000/svg">
    <symbol id="apple" viewBox="0 0 88 103">
        <g opacity="1">
            <path d="M62.0213 0C56.3822 0.380803 49.7911 3.90485 45.9501 8.49385C42.4463 12.6569 39.5639 18.8401 40.6878 24.849C46.8492 25.0362 53.2155 21.4283 56.9044 16.7618C60.3554 12.4181 62.9667 6.27358 62.0213 0Z" />
            <path d="M84.1518 35.1428C78.932 28.6335 71.5962 24.856 64.6683 24.856C55.5225 24.856 51.6539 29.2103 45.2996 29.2103C38.7478 29.2103 33.7702 24.8686 25.8608 24.8686C18.0916 24.8686 9.819 29.5906 4.5737 37.6654C-2.8003 49.0361 -1.53838 70.4148 10.4117 88.6243C14.6883 95.14 20.3988 102.467 27.8684 102.53C34.5159 102.594 36.3896 98.29 45.3952 98.2457C54.4008 98.195 56.1089 102.587 62.7436 102.518C70.2196 102.461 76.2424 94.3414 80.5189 87.8257C83.5845 83.1545 84.7254 80.803 87.1027 75.5297C69.8117 68.9823 67.0392 44.5296 84.1518 35.1428Z" />
        </g>
    </symbol>

    <symbol id="jeep" viewBox="0 0 159 64">
        <g opacity="1">
            <path d="M39.1439 0.699707H25.1918C24.5114 0.699707 23.9598 1.24758 23.9598 1.92331V37.5272C23.9598 37.5272 23.653 41.6128 19.9506 41.6128C16.2483 41.6128 15.9837 37.5272 15.9837 37.5272V29.3593C15.9837 28.6836 15.4321 28.1357 14.7517 28.1357H2.09135C1.41099 28.1357 0.859375 28.6836 0.859375 29.3593V39.6783C0.859375 39.6783 1.65246 53.9248 20.3322 53.9248C39.7272 53.9248 40.3139 36.3819 40.3139 36.3819L40.3758 1.92545C40.3771 1.2488 39.8251 0.699707 39.1439 0.699707Z" />
            <path fill-rule="evenodd" clip-rule="evenodd" d="M80.923 34.8013C80.9319 35.3174 80.5186 35.7429 79.999 35.7429L57.234 35.7426C56.6738 35.7426 56.2336 36.2351 56.318 36.7851C56.9291 40.7676 59.1029 44.4531 62.8398 44.4531C64.7269 44.4531 66.7738 43.6351 67.9426 42.1512C68.1166 41.9304 68.3831 41.8016 68.6655 41.8016H78.8859C79.5426 41.8016 79.983 42.4605 79.7425 43.0671C76.8587 50.3396 70.1799 53.7348 62.8401 53.7348C52.1324 53.7348 44.01 46.5372 44.01 33.8466C44.01 22.8607 51.0252 12.7629 61.7322 12.7629C74.7388 12.7629 80.6744 20.6206 80.923 34.8013ZM68.4879 27.1478C68.0585 24.2158 65.8207 21.9294 62.8399 21.9294C57.2769 21.9294 56.5036 26.5632 56.3961 27.8514C56.3813 28.0297 56.5233 28.1802 56.7035 28.1802H67.5704C68.1263 28.1802 68.568 27.6945 68.4879 27.1478Z" />
            <path fill-rule="evenodd" clip-rule="evenodd" d="M120.008 34.8013C120.017 35.3174 119.604 35.7429 119.084 35.7429L96.3195 35.7426C95.7592 35.7426 95.3191 36.2351 95.4035 36.7851C96.0145 40.7676 98.1884 44.4531 101.925 44.4531C103.812 44.4531 105.859 43.6351 107.028 42.1512C107.202 41.9304 107.469 41.8016 107.751 41.8016H117.971C118.628 41.8016 119.068 42.4605 118.828 43.0671C115.944 50.3396 109.265 53.7348 101.926 53.7348C91.2179 53.7348 83.0955 46.5372 83.0955 33.8466C83.0955 22.8607 90.1106 12.7629 100.818 12.7629C113.824 12.7629 119.76 20.6206 120.008 34.8013ZM107.572 27.1478C107.143 24.2158 104.905 21.9294 101.924 21.9294C96.3614 21.9294 95.588 26.5632 95.4805 27.8514C95.4657 28.0297 95.6077 28.1802 95.7879 28.1802H106.655C107.211 28.1802 107.652 27.6945 107.572 27.1478Z" />
            <path fill-rule="evenodd" clip-rule="evenodd" d="M133.734 17.8782C133.734 17.8782 136.145 12.7644 144.042 12.7644C146.733 12.7644 158.552 13.3756 158.552 32.841C158.552 52.3068 143.852 52.5399 143.852 52.5399C143.852 52.5399 137.046 52.9336 134.114 47.4261V62.798C134.114 63.3049 133.701 63.7157 133.19 63.7157H121.868C121.357 63.7157 120.944 63.3049 120.944 62.798V14.6273C120.944 14.1205 121.357 13.7096 121.868 13.7096H132.81C133.32 13.7096 133.734 14.1205 133.734 14.6273V17.8782ZM133.527 32.8064C133.527 37.5862 135.072 41.4616 139.555 41.4616C144.039 41.4616 145.584 37.5862 145.584 32.8064C145.584 28.0237 143.798 24.1482 139.555 24.1482C135.313 24.1482 133.527 28.0233 133.527 32.8064Z" /> 
        </g>
    </symbol>

    <symbol id="google+" viewBox="0 0 129 78">
        <g opacity="1">
            <path d="M112.26 28.9279V12.8584H104.13V28.9279H87.8695V36.9626H104.13V53.032H112.26V36.9626H128.52V28.9279H112.26Z" />
            <path d="M39.4011 31.4008V46.8522H61.5168C58.2882 55.845 49.5951 62.3036 39.4011 62.3036C26.471 62.3036 15.9487 51.9048 15.9487 39.1265C15.9487 26.3482 26.471 15.9494 39.4011 15.9494C45.0063 15.9494 50.4003 17.9349 54.5905 21.5428L64.8627 9.8925C57.827 3.83555 48.7899 0.498047 39.4011 0.498047C17.8483 0.498047 0.313721 17.8268 0.313721 39.1265C0.313721 60.4263 17.8483 77.755 39.4011 77.755C60.954 77.755 78.4886 60.4263 78.4886 39.1265V31.4008H39.4011Z" />
        </g>
    </symbol>

    <symbol id="nike" viewBox="0 0 159 55">
            <g opacity="1">
                <path d="M89.5441 18.2908L79.7073 20.8331L52.4135 27.8657C42.7746 30.2132 34.3431 33.3399 26.2183 30.6028C15.1741 25.9079 15.372 13.6933 23.6057 0.699463C9.04837 12.5244 -17.1469 50.3371 18.2815 54.1554C22.7942 54.7398 30.8299 53.1813 39.5584 49.5676L79.7073 33.3497L158.897 1.4787L89.5441 18.2908Z" />
            </g>
    </symbol>
    
    <symbol id="tripad" viewBox="0 0 159 55">
            <g opacity="1">
                <path fill-rule="evenodd" clip-rule="evenodd" d="M103.803 13.5007H85.5089C66.1122 -3.66691 37.6983 -3.66691 18.3017 13.5007H0.0078125C0.0078125 13.5007 4.15961 18.651 5.84627 23.4712C2.21345 27.9612 0.0078125 33.6397 0.0078125 39.9125C0.0078125 54.505 11.6199 66.3243 25.9565 66.3243C34.4547 66.3243 41.9799 62.0984 46.7155 55.6275L52.1647 66.3243L57.1599 55.6935C61.8955 62.0984 69.3558 66.3243 77.854 66.3243C92.1907 66.3243 103.803 54.505 103.803 39.9125C103.803 33.6397 101.597 27.9612 97.9642 23.4712C99.6509 18.651 103.803 13.5007 103.803 13.5007ZM25.9557 59.7217C15.2518 59.7217 6.49414 50.8077 6.49414 39.9128C6.49414 29.018 15.2518 20.104 25.9557 20.104C36.6595 20.104 45.4172 29.018 45.4172 39.9128C45.4172 50.8077 36.6595 59.7217 25.9557 59.7217ZM58.3925 39.9128C58.3925 50.8077 67.1502 59.7217 77.854 59.7217C88.5578 59.7217 97.3155 50.8077 97.3155 39.9128C97.3155 29.018 88.5578 20.104 77.854 20.104C67.1502 20.104 58.3925 29.018 58.3925 39.9128Z" />
                <path fill-rule="evenodd" clip-rule="evenodd" d="M12.9821 39.9129C12.9821 32.6299 18.8011 26.707 25.9564 26.707C33.1118 26.707 38.9308 32.6299 38.9308 39.9129C38.9308 47.196 33.1118 53.1188 25.9564 53.1188C18.8011 53.1188 12.9821 47.196 12.9821 39.9129ZM19.4683 39.9125C19.4683 43.5507 22.381 46.5154 25.9554 46.5154C29.5299 46.5154 32.4426 43.5507 32.4426 39.9125C32.4426 36.2743 29.5299 33.3096 25.9554 33.3096C22.381 33.3096 19.4683 36.2743 19.4683 39.9125Z" />
                <path fill-rule="evenodd" clip-rule="evenodd" d="M64.8792 39.9129C64.8792 32.6299 70.6982 26.707 77.8535 26.707C85.0089 26.707 90.8279 32.6299 90.8279 39.9129C90.8279 47.196 85.0089 53.1188 77.8535 53.1188C70.6982 53.1188 64.8792 47.196 64.8792 39.9129ZM71.3654 39.9125C71.3654 43.5507 74.2716 46.5154 77.8525 46.5154C81.4335 46.5154 84.3397 43.5507 84.3397 39.9125C84.3397 36.2743 81.4335 33.3096 77.8525 33.3096C74.2716 33.3096 71.3654 36.2743 71.3654 39.9125Z" />
                <path d="M25.9556 43.214C27.747 43.214 29.1992 41.7359 29.1992 39.9126C29.1992 38.0892 27.747 36.6111 25.9556 36.6111C24.1642 36.6111 22.712 38.0892 22.712 39.9126C22.712 41.7359 24.1642 43.214 25.9556 43.214Z" />
                <path d="M77.8539 43.214C79.6453 43.214 81.0975 41.7359 81.0975 39.9126C81.0975 38.0892 79.6453 36.6111 77.8539 36.6111C76.0626 36.6111 74.6104 38.0892 74.6104 39.9126C74.6104 41.7359 76.0626 43.214 77.8539 43.214Z" />
            </g>
    </symbol>

    <symbol id="github" viewBox="0 0 87 87">
            <g opacity="1">
                <path d="M43.5292 0.0310059C19.6522 0.0310059 0.0576172 19.6256 0.0576172 43.5026C0.0576172 63.8779 14.3549 82.3867 33.3406 86.9742V72.592C31.4594 73.004 29.7281 73.0159 27.8131 72.4514C25.244 71.6932 23.1566 69.9818 21.607 67.3723C20.6193 65.7061 18.8688 63.8992 17.0427 64.0318L16.5949 58.9574C20.5437 58.6191 23.9598 61.3633 25.9876 64.7701C26.8884 66.2851 27.9252 67.1733 29.2558 67.566C30.542 67.9448 31.923 67.763 33.5323 67.1946C33.9362 63.9728 35.4121 62.7669 36.5272 61.0688V61.0661C25.2042 59.3773 20.6916 53.3702 18.9007 48.6288C16.5273 42.3332 17.8009 34.4681 21.9977 29.4979C22.0793 29.401 22.2266 29.1476 22.1695 28.9705C20.2452 23.1578 22.5901 18.3494 22.6763 17.8393C24.8971 18.496 25.258 17.1786 32.323 21.471L33.5442 22.2046C34.055 22.5091 33.8944 22.3353 34.4052 22.2968C37.355 21.4955 40.4647 21.0531 43.5286 21.0133C46.6157 21.0531 49.7054 21.4955 52.7773 22.3293L53.1726 22.3691C53.1381 22.3638 53.2801 22.3439 53.5182 22.202C62.3438 16.8562 62.0267 18.6034 64.3934 17.834C64.479 18.3447 66.7927 23.2314 64.8889 28.9705C64.6322 29.7612 72.5404 37.0027 68.1571 48.6268C66.3661 53.3702 61.8542 59.3773 50.5313 61.0661V61.0688C51.9826 63.2809 53.7265 64.4577 53.7172 69.0214V86.9742C72.7035 82.3867 87.0002 63.8779 87.0002 43.5026C87.0008 19.6256 67.4062 0.0310059 43.5292 0.0310059Z" />
            </g>
    </symbol>

</svg>
